<svg width="285" height="57" viewBox="0 0 285 57" fill="none" xmlns="http://www.w3.org/2000/svg">
<g filter="url(#filter0_f_54_5555)">
<path d="M20.9375 10.875V45H15.1016V10.875H20.9375ZM31.6484 10.875V15.5625H4.48438V10.875H31.6484ZM36.1484 10.875H48.2188C50.8125 10.875 53.0234 11.2656 54.8516 12.0469C56.6797 12.8281 58.0781 13.9844 59.0469 15.5156C60.0312 17.0312 60.5234 18.9062 60.5234 21.1406C60.5234 22.8438 60.2109 24.3438 59.5859 25.6406C58.9609 26.9375 58.0781 28.0312 56.9375 28.9219C55.7969 29.7969 54.4375 30.4766 52.8594 30.9609L51.0781 31.8281H40.2266L40.1797 27.1641H48.3125C49.7188 27.1641 50.8906 26.9141 51.8281 26.4141C52.7656 25.9141 53.4688 25.2344 53.9375 24.375C54.4219 23.5 54.6641 22.5156 54.6641 21.4219C54.6641 20.2344 54.4297 19.2031 53.9609 18.3281C53.5078 17.4375 52.8047 16.7578 51.8516 16.2891C50.8984 15.8047 49.6875 15.5625 48.2188 15.5625H42.0312V45H36.1484V10.875ZM55.625 45L47.6094 29.6719L53.7734 29.6484L61.9062 44.6953V45H55.625ZM79.6719 15.4219L69.4766 45H63.3125L76.1562 10.875H80.0938L79.6719 15.4219ZM88.2031 45L77.9844 15.4219L77.5391 10.875H81.5L94.3906 45H88.2031ZM87.7109 32.3438V37.0078H69.1484V32.3438H87.7109ZM107.938 38.7656L116.914 10.875H123.406L111.172 45H106.789L107.938 38.7656ZM99.6406 10.875L108.547 38.7656L109.766 45H105.359L93.1719 10.875H99.6406ZM149.562 40.3359V45H131.445V40.3359H149.562ZM133.109 10.875V45H127.227V10.875H133.109ZM147.195 25.125V29.7188H131.445V25.125H147.195ZM149.445 10.875V15.5625H131.445V10.875H149.445ZM175.742 40.3359V45H158.609V40.3359H175.742ZM160.25 10.875V45H154.367V10.875H160.25ZM205.039 29.5781H196.344L196.297 25.2891H203.891C205.172 25.2891 206.258 25.1016 207.148 24.7266C208.055 24.3359 208.742 23.7812 209.211 23.0625C209.68 22.3281 209.914 21.4453 209.914 20.4141C209.914 19.2734 209.695 18.3438 209.258 17.625C208.82 16.9062 208.148 16.3828 207.242 16.0547C206.352 15.7266 205.211 15.5625 203.82 15.5625H198.125V45H192.242V10.875H203.82C205.695 10.875 207.367 11.0547 208.836 11.4141C210.32 11.7734 211.578 12.3359 212.609 13.1016C213.656 13.8516 214.445 14.8047 214.977 15.9609C215.523 17.1172 215.797 18.4922 215.797 20.0859C215.797 21.4922 215.461 22.7812 214.789 23.9531C214.117 25.1094 213.125 26.0547 211.812 26.7891C210.5 27.5234 208.867 27.9609 206.914 28.1016L205.039 29.5781ZM204.781 45H194.492L197.141 40.3359H204.781C206.109 40.3359 207.219 40.1172 208.109 39.6797C209 39.2266 209.664 38.6094 210.102 37.8281C210.555 37.0312 210.781 36.1016 210.781 35.0391C210.781 33.9297 210.586 32.9688 210.195 32.1562C209.805 31.3281 209.188 30.6953 208.344 30.2578C207.5 29.8047 206.398 29.5781 205.039 29.5781H198.43L198.477 25.2891H207.078L208.414 26.9062C210.289 26.9688 211.828 27.3828 213.031 28.1484C214.25 28.9141 215.156 29.9062 215.75 31.125C216.344 32.3438 216.641 33.6562 216.641 35.0625C216.641 37.2344 216.164 39.0547 215.211 40.5234C214.273 41.9922 212.922 43.1094 211.156 43.875C209.391 44.625 207.266 45 204.781 45ZM241.719 10.875H247.578V33.6797C247.578 36.2734 247.016 38.4453 245.891 40.1953C244.766 41.9453 243.234 43.2656 241.297 44.1562C239.375 45.0312 237.227 45.4688 234.852 45.4688C232.398 45.4688 230.211 45.0312 228.289 44.1562C226.367 43.2656 224.852 41.9453 223.742 40.1953C222.648 38.4453 222.102 36.2734 222.102 33.6797V10.875H227.961V33.6797C227.961 35.3203 228.242 36.6719 228.805 37.7344C229.367 38.7812 230.164 39.5547 231.195 40.0547C232.227 40.5547 233.445 40.8047 234.852 40.8047C236.258 40.8047 237.469 40.5547 238.484 40.0547C239.516 39.5547 240.312 38.7812 240.875 37.7344C241.438 36.6719 241.719 35.3203 241.719 33.6797V10.875ZM271.93 36.2109C271.93 35.5078 271.82 34.8828 271.602 34.3359C271.398 33.7891 271.031 33.2891 270.5 32.8359C269.969 32.3828 269.219 31.9453 268.25 31.5234C267.297 31.0859 266.078 30.6406 264.594 30.1875C262.969 29.6875 261.469 29.1328 260.094 28.5234C258.734 27.8984 257.547 27.1797 256.531 26.3672C255.516 25.5391 254.727 24.5938 254.164 23.5312C253.602 22.4531 253.32 21.2109 253.32 19.8047C253.32 18.4141 253.609 17.1484 254.188 16.0078C254.781 14.8672 255.617 13.8828 256.695 13.0547C257.789 12.2109 259.078 11.5625 260.562 11.1094C262.047 10.6406 263.688 10.4062 265.484 10.4062C268.016 10.4062 270.195 10.875 272.023 11.8125C273.867 12.75 275.281 14.0078 276.266 15.5859C277.266 17.1641 277.766 18.9062 277.766 20.8125H271.93C271.93 19.6875 271.688 18.6953 271.203 17.8359C270.734 16.9609 270.016 16.2734 269.047 15.7734C268.094 15.2734 266.883 15.0234 265.414 15.0234C264.023 15.0234 262.867 15.2344 261.945 15.6562C261.023 16.0781 260.336 16.6484 259.883 17.3672C259.43 18.0859 259.203 18.8984 259.203 19.8047C259.203 20.4453 259.352 21.0312 259.648 21.5625C259.945 22.0781 260.398 22.5625 261.008 23.0156C261.617 23.4531 262.383 23.8672 263.305 24.2578C264.227 24.6484 265.312 25.0234 266.562 25.3828C268.453 25.9453 270.102 26.5703 271.508 27.2578C272.914 27.9297 274.086 28.6953 275.023 29.5547C275.961 30.4141 276.664 31.3906 277.133 32.4844C277.602 33.5625 277.836 34.7891 277.836 36.1641C277.836 37.6016 277.547 38.8984 276.969 40.0547C276.391 41.1953 275.562 42.1719 274.484 42.9844C273.422 43.7812 272.141 44.3984 270.641 44.8359C269.156 45.2578 267.5 45.4688 265.672 45.4688C264.031 45.4688 262.414 45.25 260.82 44.8125C259.242 44.375 257.805 43.7109 256.508 42.8203C255.211 41.9141 254.18 40.7891 253.414 39.4453C252.648 38.0859 252.266 36.5 252.266 34.6875H258.148C258.148 35.7969 258.336 36.7422 258.711 37.5234C259.102 38.3047 259.641 38.9453 260.328 39.4453C261.016 39.9297 261.812 40.2891 262.719 40.5234C263.641 40.7578 264.625 40.875 265.672 40.875C267.047 40.875 268.195 40.6797 269.117 40.2891C270.055 39.8984 270.758 39.3516 271.227 38.6484C271.695 37.9453 271.93 37.1328 271.93 36.2109Z" fill="#495371"/>
<path d="M20.9375 10.875H21.9375V9.875H20.9375V10.875ZM20.9375 45V46H21.9375V45H20.9375ZM15.1016 45H14.1016V46H15.1016V45ZM15.1016 10.875V9.875H14.1016V10.875H15.1016ZM31.6484 10.875H32.6484V9.875H31.6484V10.875ZM31.6484 15.5625V16.5625H32.6484V15.5625H31.6484ZM4.48438 15.5625H3.48438V16.5625H4.48438V15.5625ZM4.48438 10.875V9.875H3.48438V10.875H4.48438ZM19.9375 10.875V45H21.9375V10.875H19.9375ZM20.9375 44H15.1016V46H20.9375V44ZM16.1016 45V10.875H14.1016V45H16.1016ZM15.1016 11.875H20.9375V9.875H15.1016V11.875ZM30.6484 10.875V15.5625H32.6484V10.875H30.6484ZM31.6484 14.5625H4.48438V16.5625H31.6484V14.5625ZM5.48438 15.5625V10.875H3.48438V15.5625H5.48438ZM4.48438 11.875H31.6484V9.875H4.48438V11.875ZM36.1484 10.875V9.875H35.1484V10.875H36.1484ZM59.0469 15.5156L58.2017 16.0503L58.2082 16.0603L59.0469 15.5156ZM56.9375 28.9219L57.5462 29.7153L57.5529 29.7101L56.9375 28.9219ZM52.8594 30.9609L52.566 30.005L52.4916 30.0278L52.4217 30.0618L52.8594 30.9609ZM51.0781 31.8281V32.8281H51.3086L51.5158 32.7272L51.0781 31.8281ZM40.2266 31.8281L39.2266 31.8382L39.2366 32.8281H40.2266V31.8281ZM40.1797 27.1641V26.1641H39.1696L39.1797 27.1741L40.1797 27.1641ZM53.9375 24.375L53.0626 23.8907L53.0596 23.8961L53.9375 24.375ZM53.9609 18.3281L53.0697 18.7816L53.0745 18.791L53.0795 18.8003L53.9609 18.3281ZM51.8516 16.2891L51.3985 17.1806L51.4102 17.1864L51.8516 16.2891ZM42.0312 15.5625V14.5625H41.0312V15.5625H42.0312ZM42.0312 45V46H43.0312V45H42.0312ZM36.1484 45H35.1484V46H36.1484V45ZM55.625 45L54.7389 45.4634L55.0195 46H55.625V45ZM47.6094 29.6719L47.6056 28.6719L45.9612 28.6781L46.7232 30.1353L47.6094 29.6719ZM53.7734 29.6484L54.6532 29.1729L54.3684 28.6462L53.7696 28.6484L53.7734 29.6484ZM61.9062 44.6953H62.9062V44.4424L62.786 44.2198L61.9062 44.6953ZM61.9062 45V46H62.9062V45H61.9062ZM36.1484 11.875H48.2188V9.875H36.1484V11.875ZM48.2188 11.875C50.7167 11.875 52.7863 12.2518 54.4586 12.9664L55.2445 11.1273C53.2606 10.2795 50.9083 9.875 48.2188 9.875V11.875ZM54.4586 12.9664C56.1194 13.6762 57.3518 14.7067 58.2018 16.0503L59.892 14.981C58.8044 13.262 57.2399 11.9801 55.2445 11.1273L54.4586 12.9664ZM58.2082 16.0603C59.0648 17.3792 59.5234 19.0538 59.5234 21.1406H61.5234C61.5234 18.7587 60.9977 16.6833 59.8855 14.9709L58.2082 16.0603ZM59.5234 21.1406C59.5234 22.7207 59.2339 24.0676 58.6851 25.2065L60.4868 26.0748C61.1879 24.6199 61.5234 22.9668 61.5234 21.1406H59.5234ZM58.6851 25.2065C58.1271 26.3642 57.3423 27.3371 56.3221 28.1337L57.5529 29.7101C58.814 28.7254 59.7947 27.5108 60.4868 26.0748L58.6851 25.2065ZM56.3288 28.1284C55.2957 28.921 54.0468 29.5504 52.566 30.005L53.1528 31.9169C54.8282 31.4027 56.2981 30.6727 57.5462 29.7153L56.3288 28.1284ZM52.4217 30.0618L50.6404 30.929L51.5158 32.7272L53.2971 31.86L52.4217 30.0618ZM51.0781 30.8281H40.2266V32.8281H51.0781V30.8281ZM41.2265 31.8181L41.1796 27.154L39.1797 27.1741L39.2266 31.8382L41.2265 31.8181ZM40.1797 28.1641H48.3125V26.1641H40.1797V28.1641ZM48.3125 28.1641C49.8318 28.1641 51.1771 27.8946 52.2987 27.2964L51.3575 25.5317C50.6041 25.9335 49.6057 26.1641 48.3125 26.1641V28.1641ZM52.2987 27.2964C53.3931 26.7127 54.2452 25.8993 54.8154 24.8539L53.0596 23.8961C52.6923 24.5695 52.1381 25.1154 51.3575 25.5317L52.2987 27.2964ZM54.8124 24.8593C55.3864 23.8225 55.6641 22.6688 55.6641 21.4219H53.6641C53.6641 22.3625 53.4574 23.1775 53.0626 23.8907L54.8124 24.8593ZM55.6641 21.4219C55.6641 20.1018 55.4029 18.9021 54.8424 17.8559L53.0795 18.8003C53.4565 19.5041 53.6641 20.3669 53.6641 21.4219H55.6641ZM54.8522 17.8747C54.2947 16.7788 53.427 15.9495 52.2929 15.3917L51.4102 17.1864C52.1823 17.5661 52.721 18.0962 53.0697 18.7816L54.8522 17.8747ZM52.3046 15.3976C51.1687 14.8203 49.7892 14.5625 48.2188 14.5625V16.5625C49.5858 16.5625 50.6282 16.7891 51.3985 17.1805L52.3046 15.3976ZM48.2188 14.5625H42.0312V16.5625H48.2188V14.5625ZM41.0312 15.5625V45H43.0312V15.5625H41.0312ZM42.0312 44H36.1484V46H42.0312V44ZM37.1484 45V10.875H35.1484V45H37.1484ZM56.5111 44.5366L48.4955 29.2085L46.7232 30.1353L54.7389 45.4634L56.5111 44.5366ZM47.6132 30.6719L53.7772 30.6484L53.7696 28.6484L47.6056 28.6719L47.6132 30.6719ZM52.8937 30.1239L61.0265 45.1708L62.786 44.2198L54.6532 29.1729L52.8937 30.1239ZM60.9062 44.6953V45H62.9062V44.6953H60.9062ZM61.9062 44H55.625V46H61.9062V44ZM79.6719 15.4219L80.6173 15.7478L80.6565 15.634L80.6676 15.5143L79.6719 15.4219ZM69.4766 45V46H70.1896L70.422 45.3259L69.4766 45ZM63.3125 45L62.3766 44.6477L61.8676 46H63.3125V45ZM76.1562 10.875V9.875H75.4641L75.2203 10.5227L76.1562 10.875ZM80.0938 10.875L81.0895 10.9674L81.1908 9.875H80.0938V10.875ZM88.2031 45L87.2579 45.3265L87.4906 46H88.2031V45ZM77.9844 15.4219L76.9891 15.5193L77.0006 15.6368L77.0392 15.7484L77.9844 15.4219ZM77.5391 10.875V9.875H76.4363L76.5438 10.9725L77.5391 10.875ZM81.5 10.875L82.4355 10.5216L82.1912 9.875H81.5V10.875ZM94.3906 45V46H95.8373L95.3261 44.6466L94.3906 45ZM87.7109 32.3438H88.7109V31.3438H87.7109V32.3438ZM87.7109 37.0078V38.0078H88.7109V37.0078H87.7109ZM69.1484 37.0078H68.1484V38.0078H69.1484V37.0078ZM69.1484 32.3438V31.3438H68.1484V32.3438H69.1484ZM78.7265 15.096L68.5311 44.6741L70.422 45.3259L80.6173 15.7478L78.7265 15.096ZM69.4766 44H63.3125V46H69.4766V44ZM64.2484 45.3523L77.0922 11.2273L75.2203 10.5227L62.3766 44.6477L64.2484 45.3523ZM76.1562 11.875H80.0938V9.875H76.1562V11.875ZM79.098 10.7826L78.6762 15.3295L80.6676 15.5143L81.0895 10.9674L79.098 10.7826ZM89.1483 44.6735L78.9296 15.0953L77.0392 15.7484L87.2579 45.3265L89.1483 44.6735ZM78.9796 15.3244L78.5343 10.7775L76.5438 10.9725L76.9891 15.5193L78.9796 15.3244ZM77.5391 11.875H81.5V9.875H77.5391V11.875ZM80.5645 11.2284L93.4551 45.3534L95.3261 44.6466L82.4355 10.5216L80.5645 11.2284ZM94.3906 44H88.2031V46H94.3906V44ZM86.7109 32.3438V37.0078H88.7109V32.3438H86.7109ZM87.7109 36.0078H69.1484V38.0078H87.7109V36.0078ZM70.1484 37.0078V32.3438H68.1484V37.0078H70.1484ZM69.1484 33.3438H87.7109V31.3438H69.1484V33.3438ZM107.938 38.7656L106.986 38.4593L106.966 38.5208L106.954 38.5845L107.938 38.7656ZM116.914 10.875V9.875H116.185L115.962 10.5686L116.914 10.875ZM123.406 10.875L124.348 11.2125L124.827 9.875H123.406V10.875ZM111.172 45V46H111.876L112.113 45.3375L111.172 45ZM106.789 45L105.806 44.8188L105.588 46H106.789V45ZM99.6406 10.875L100.593 10.5708L100.371 9.875H99.6406V10.875ZM108.547 38.7656L109.528 38.5738L109.517 38.5168L109.499 38.4614L108.547 38.7656ZM109.766 45V46H110.98L110.747 44.8081L109.766 45ZM105.359 45L104.418 45.3363L104.655 46H105.359V45ZM93.1719 10.875V9.875H91.7529L92.2301 11.2113L93.1719 10.875ZM108.889 39.072L117.866 11.1814L115.962 10.5686L106.986 38.4593L108.889 39.072ZM116.914 11.875H123.406V9.875H116.914V11.875ZM122.465 10.5375L110.231 44.6625L112.113 45.3375L124.348 11.2125L122.465 10.5375ZM111.172 44H106.789V46H111.172V44ZM107.773 45.1812L108.921 38.9468L106.954 38.5845L105.806 44.8188L107.773 45.1812ZM98.688 11.1792L107.594 39.0698L109.499 38.4614L100.593 10.5708L98.688 11.1792ZM107.565 38.9575L108.784 45.1919L110.747 44.8081L109.528 38.5738L107.565 38.9575ZM109.766 44H105.359V46H109.766V44ZM106.301 44.6637L94.1136 10.5387L92.2301 11.2113L104.418 45.3363L106.301 44.6637ZM93.1719 11.875H99.6406V9.875H93.1719V11.875ZM149.562 40.3359H150.562V39.3359H149.562V40.3359ZM149.562 45V46H150.562V45H149.562ZM131.445 45H130.445V46H131.445V45ZM131.445 40.3359V39.3359H130.445V40.3359H131.445ZM133.109 10.875H134.109V9.875H133.109V10.875ZM133.109 45V46H134.109V45H133.109ZM127.227 45H126.227V46H127.227V45ZM127.227 10.875V9.875H126.227V10.875H127.227ZM147.195 25.125H148.195V24.125H147.195V25.125ZM147.195 29.7188V30.7188H148.195V29.7188H147.195ZM131.445 29.7188H130.445V30.7188H131.445V29.7188ZM131.445 25.125V24.125H130.445V25.125H131.445ZM149.445 10.875H150.445V9.875H149.445V10.875ZM149.445 15.5625V16.5625H150.445V15.5625H149.445ZM131.445 15.5625H130.445V16.5625H131.445V15.5625ZM131.445 10.875V9.875H130.445V10.875H131.445ZM148.562 40.3359V45H150.562V40.3359H148.562ZM149.562 44H131.445V46H149.562V44ZM132.445 45V40.3359H130.445V45H132.445ZM131.445 41.3359H149.562V39.3359H131.445V41.3359ZM132.109 10.875V45H134.109V10.875H132.109ZM133.109 44H127.227V46H133.109V44ZM128.227 45V10.875H126.227V45H128.227ZM127.227 11.875H133.109V9.875H127.227V11.875ZM146.195 25.125V29.7188H148.195V25.125H146.195ZM147.195 28.7188H131.445V30.7188H147.195V28.7188ZM132.445 29.7188V25.125H130.445V29.7188H132.445ZM131.445 26.125H147.195V24.125H131.445V26.125ZM148.445 10.875V15.5625H150.445V10.875H148.445ZM149.445 14.5625H131.445V16.5625H149.445V14.5625ZM132.445 15.5625V10.875H130.445V15.5625H132.445ZM131.445 11.875H149.445V9.875H131.445V11.875ZM175.742 40.3359H176.742V39.3359H175.742V40.3359ZM175.742 45V46H176.742V45H175.742ZM158.609 45H157.609V46H158.609V45ZM158.609 40.3359V39.3359H157.609V40.3359H158.609ZM160.25 10.875H161.25V9.875H160.25V10.875ZM160.25 45V46H161.25V45H160.25ZM154.367 45H153.367V46H154.367V45ZM154.367 10.875V9.875H153.367V10.875H154.367ZM174.742 40.3359V45H176.742V40.3359H174.742ZM175.742 44H158.609V46H175.742V44ZM159.609 45V40.3359H157.609V45H159.609ZM158.609 41.3359H175.742V39.3359H158.609V41.3359ZM159.25 10.875V45H161.25V10.875H159.25ZM160.25 44H154.367V46H160.25V44ZM155.367 45V10.875H153.367V45H155.367ZM154.367 11.875H160.25V9.875H154.367V11.875ZM205.039 29.5781V30.5781H205.386L205.658 30.3638L205.039 29.5781ZM196.344 29.5781L195.344 29.5891L195.355 30.5781H196.344V29.5781ZM196.297 25.2891V24.2891H195.286L195.297 25.3L196.297 25.2891ZM207.148 24.7266L207.537 25.6482L207.544 25.6449L207.148 24.7266ZM209.211 23.0625L210.049 23.6088L210.054 23.6005L209.211 23.0625ZM207.242 16.0547L206.896 16.993L206.902 16.995L207.242 16.0547ZM198.125 15.5625V14.5625H197.125V15.5625H198.125ZM198.125 45V46H199.125V45H198.125ZM192.242 45H191.242V46H192.242V45ZM192.242 10.875V9.875H191.242V10.875H192.242ZM208.836 11.4141L208.598 12.3854L208.601 12.386L208.836 11.4141ZM212.609 13.1016L212.013 13.9045L212.02 13.9095L212.027 13.9145L212.609 13.1016ZM214.977 15.9609L214.068 16.3785L214.073 16.3885L214.977 15.9609ZM214.789 23.9531L215.654 24.4556L215.657 24.4505L214.789 23.9531ZM206.914 28.1016L206.842 27.1041L206.536 27.1262L206.295 27.3159L206.914 28.1016ZM194.492 45L193.623 44.5062L192.774 46H194.492V45ZM197.141 40.3359V39.3359H196.558L196.271 39.8422L197.141 40.3359ZM208.109 39.6797L208.55 40.5773L208.563 40.571L208.109 39.6797ZM210.102 37.8281L209.232 37.3338L209.229 37.3395L210.102 37.8281ZM210.195 32.1562L209.291 32.5829L209.294 32.5895L210.195 32.1562ZM208.344 30.2578L207.871 31.1388L207.877 31.1422L207.883 31.1456L208.344 30.2578ZM198.43 29.5781L197.43 29.5672L197.419 30.5781H198.43V29.5781ZM198.477 25.2891V24.2891H197.487L197.477 25.2781L198.477 25.2891ZM207.078 25.2891L207.849 24.6522L207.549 24.2891H207.078V25.2891ZM208.414 26.9062L207.643 27.5431L207.93 27.8907L208.381 27.9057L208.414 26.9062ZM213.031 28.1484L212.494 28.9921L212.499 28.9952L213.031 28.1484ZM215.211 40.5234L214.372 39.9791L214.368 39.9854L215.211 40.5234ZM211.156 43.875L211.547 44.7954L211.554 44.7925L211.156 43.875ZM205.039 28.5781H196.344V30.5781H205.039V28.5781ZM197.344 29.5672L197.297 25.2781L195.297 25.3L195.344 29.5891L197.344 29.5672ZM196.297 26.2891H203.891V24.2891H196.297V26.2891ZM203.891 26.2891C205.264 26.2891 206.49 26.0888 207.536 25.6482L206.76 23.8049C206.026 24.1143 205.08 24.2891 203.891 24.2891V26.2891ZM207.544 25.6449C208.603 25.1884 209.457 24.516 210.049 23.6088L208.373 22.5162C208.027 23.0465 207.506 23.4835 206.753 23.8082L207.544 25.6449ZM210.054 23.6005C210.643 22.6779 210.914 21.6004 210.914 20.4141H208.914C208.914 21.2902 208.717 21.9783 208.368 22.5245L210.054 23.6005ZM210.914 20.4141C210.914 19.153 210.673 18.0267 210.112 17.1051L208.404 18.1449C208.718 18.6608 208.914 19.3939 208.914 20.4141H210.914ZM210.112 17.1051C209.539 16.164 208.67 15.5082 207.583 15.1144L206.902 16.995C207.627 17.2574 208.101 17.6485 208.404 18.1449L210.112 17.1051ZM207.588 15.1163C206.548 14.7332 205.279 14.5625 203.82 14.5625V16.5625C205.143 16.5625 206.155 16.72 206.896 16.993L207.588 15.1163ZM203.82 14.5625H198.125V16.5625H203.82V14.5625ZM197.125 15.5625V45H199.125V15.5625H197.125ZM198.125 44H192.242V46H198.125V44ZM193.242 45V10.875H191.242V45H193.242ZM192.242 11.875H203.82V9.875H192.242V11.875ZM203.82 11.875C205.634 11.875 207.223 12.049 208.598 12.3854L209.074 10.4427C207.511 10.0604 205.757 9.875 203.82 9.875V11.875ZM208.601 12.386C209.979 12.7197 211.108 13.2324 212.013 13.9045L213.205 12.2987C212.048 11.4394 210.662 10.8272 209.071 10.4421L208.601 12.386ZM212.027 13.9145C212.934 14.5645 213.61 15.3821 214.068 16.3784L215.885 15.5434C215.281 14.2273 214.378 13.1386 213.192 12.2886L212.027 13.9145ZM214.073 16.3885C214.543 17.3824 214.797 18.6046 214.797 20.0859H216.797C216.797 18.3798 216.504 16.852 215.881 15.5334L214.073 16.3885ZM214.797 20.0859C214.797 21.3251 214.503 22.4416 213.922 23.4557L215.657 24.4505C216.419 23.1209 216.797 21.6592 216.797 20.0859H214.797ZM213.924 23.4507C213.353 24.4334 212.5 25.2583 211.324 25.9164L212.301 27.6617C213.75 26.851 214.881 25.7853 215.654 24.4555L213.924 23.4507ZM211.324 25.9164C210.172 26.5609 208.691 26.971 206.842 27.1041L206.986 29.099C209.043 28.9509 210.828 28.4859 212.301 27.6617L211.324 25.9164ZM206.295 27.3159L204.42 28.7925L205.658 30.3638L207.533 28.8872L206.295 27.3159ZM204.781 44H194.492V46H204.781V44ZM195.362 45.4938L198.01 40.8297L196.271 39.8422L193.623 44.5062L195.362 45.4938ZM197.141 41.3359H204.781V39.3359H197.141V41.3359ZM204.781 41.3359C206.213 41.3359 207.484 41.101 208.55 40.5772L207.668 38.7821C206.953 39.1334 206.006 39.3359 204.781 39.3359V41.3359ZM208.563 40.571C209.609 40.0389 210.429 39.2904 210.974 38.3167L209.229 37.3395C208.899 37.9283 208.391 38.4143 207.656 38.7884L208.563 40.571ZM210.971 38.3224C211.522 37.3524 211.781 36.247 211.781 35.0391H209.781C209.781 35.9561 209.587 36.7101 209.232 37.3338L210.971 38.3224ZM211.781 35.0391C211.781 33.8135 211.565 32.6982 211.097 31.723L209.294 32.5895C209.606 33.2393 209.781 34.0458 209.781 35.0391H211.781ZM211.1 31.7296C210.612 30.6953 209.834 29.9043 208.804 29.3701L207.883 31.1456C208.541 31.4863 208.998 31.9609 209.291 32.5829L211.1 31.7296ZM208.817 29.3768C207.779 28.8197 206.498 28.5781 205.039 28.5781V30.5781C206.298 30.5781 207.221 30.7897 207.871 31.1388L208.817 29.3768ZM205.039 28.5781H198.43V30.5781H205.039V28.5781ZM199.43 29.5891L199.477 25.3L197.477 25.2781L197.43 29.5672L199.43 29.5891ZM198.477 26.2891H207.078V24.2891H198.477V26.2891ZM206.307 25.9259L207.643 27.5431L209.185 26.2694L207.849 24.6522L206.307 25.9259ZM208.381 27.9057C210.132 27.9641 211.483 28.3482 212.494 28.9921L213.568 27.3048C212.174 26.4174 210.446 25.9734 208.447 25.9068L208.381 27.9057ZM212.499 28.9952C213.57 29.6679 214.344 30.5226 214.851 31.563L216.649 30.687C215.968 29.2899 214.93 28.1602 213.563 27.3017L212.499 28.9952ZM214.851 31.563C215.376 32.6401 215.641 33.8022 215.641 35.0625H217.641C217.641 33.5103 217.312 32.0474 216.649 30.687L214.851 31.563ZM215.641 35.0625C215.641 37.0877 215.197 38.7075 214.372 39.9791L216.05 41.0678C217.131 39.4019 217.641 37.3811 217.641 35.0625H215.641ZM214.368 39.9854C213.549 41.2688 212.361 42.2626 210.758 42.9575L211.554 44.7925C213.483 43.9562 214.998 42.7156 216.054 41.0615L214.368 39.9854ZM210.765 42.9546C209.154 43.639 207.169 44 204.781 44V46C207.362 46 209.627 45.611 211.547 44.7954L210.765 42.9546ZM241.719 10.875V9.875H240.719V10.875H241.719ZM247.578 10.875H248.578V9.875H247.578V10.875ZM241.297 44.1562L241.711 45.0664L241.715 45.0649L241.297 44.1562ZM228.289 44.1562L227.869 45.0636L227.875 45.0664L228.289 44.1562ZM223.742 40.1953L222.894 40.7253L222.898 40.7307L223.742 40.1953ZM222.102 10.875V9.875H221.102V10.875H222.102ZM227.961 10.875H228.961V9.875H227.961V10.875ZM228.805 37.7344L227.921 38.2023L227.924 38.2077L228.805 37.7344ZM238.484 40.0547L238.048 39.1549L238.043 39.1575L238.484 40.0547ZM240.875 37.7344L241.756 38.2077L241.759 38.2023L240.875 37.7344ZM241.719 11.875H247.578V9.875H241.719V11.875ZM246.578 10.875V33.6797H248.578V10.875H246.578ZM246.578 33.6797C246.578 36.1289 246.048 38.1015 245.049 39.6546L246.732 40.7361C247.983 38.7892 248.578 36.4179 248.578 33.6797H246.578ZM245.049 39.6546C244.03 41.2399 242.648 42.4346 240.879 43.2476L241.715 45.0649C243.821 44.0966 245.501 42.6508 246.732 40.7361L245.049 39.6546ZM240.883 43.2461C239.106 44.0549 237.101 44.4688 234.852 44.4688V46.4688C237.352 46.4688 239.644 46.0076 241.711 45.0664L240.883 43.2461ZM234.852 44.4688C232.518 44.4688 230.476 44.0531 228.703 43.2461L227.875 45.0664C229.946 46.0094 232.278 46.4688 234.852 46.4688V44.4688ZM228.71 43.2489C226.958 42.4371 225.591 41.244 224.587 39.6599L222.898 40.7307C224.112 42.6466 225.777 44.0941 227.869 45.0636L228.71 43.2489ZM224.59 39.6653C223.618 38.1104 223.102 36.1338 223.102 33.6797H221.102C221.102 36.413 221.678 38.7802 222.894 40.7253L224.59 39.6653ZM223.102 33.6797V10.875H221.102V33.6797H223.102ZM222.102 11.875H227.961V9.875H222.102V11.875ZM226.961 10.875V33.6797H228.961V10.875H226.961ZM226.961 33.6797C226.961 35.4268 227.259 36.9527 227.921 38.2023L229.688 37.2665C229.225 36.391 228.961 35.2138 228.961 33.6797H226.961ZM227.924 38.2077C228.582 39.4327 229.531 40.3591 230.759 40.9545L231.632 39.1549C230.797 38.7503 230.152 38.1298 229.686 37.2611L227.924 38.2077ZM230.759 40.9545C231.954 41.5337 233.328 41.8047 234.852 41.8047V39.8047C233.563 39.8047 232.5 39.5757 231.632 39.1549L230.759 40.9545ZM234.852 41.8047C236.375 41.8047 237.744 41.5339 238.926 40.9519L238.043 39.1575C237.194 39.5755 236.141 39.8047 234.852 39.8047V41.8047ZM238.921 40.9545C240.149 40.3591 241.098 39.4327 241.756 38.2077L239.994 37.2611C239.527 38.1298 238.883 38.7503 238.048 39.1549L238.921 40.9545ZM241.759 38.2023C242.42 36.9527 242.719 35.4268 242.719 33.6797H240.719C240.719 35.2138 240.455 36.391 239.991 37.2665L241.759 38.2023ZM242.719 33.6797V10.875H240.719V33.6797H242.719ZM271.602 34.3359L270.664 34.6841L270.668 34.6958L270.673 34.7073L271.602 34.3359ZM268.25 31.5234L267.833 32.4323L267.842 32.4364L267.851 32.4403L268.25 31.5234ZM264.594 30.1875L264.3 31.1433L264.302 31.1439L264.594 30.1875ZM260.094 28.5234L259.676 29.4321L259.689 29.4377L260.094 28.5234ZM256.531 26.3672L255.899 27.1422L255.907 27.1481L256.531 26.3672ZM254.164 23.5312L253.277 23.9938L253.28 23.9991L254.164 23.5312ZM254.188 16.0078L253.3 15.5461L253.296 15.5557L254.188 16.0078ZM256.695 13.0547L257.304 13.8477L257.306 13.8465L256.695 13.0547ZM260.562 11.1094L260.854 12.0658L260.864 12.063L260.562 11.1094ZM272.023 11.8125L271.567 12.7023L271.57 12.7039L272.023 11.8125ZM276.266 15.5859L275.417 16.1152L275.421 16.1212L276.266 15.5859ZM277.766 20.8125V21.8125H278.766V20.8125H277.766ZM271.93 20.8125H270.93V21.8125H271.93V20.8125ZM271.203 17.8359L270.322 18.3082L270.327 18.3176L270.332 18.327L271.203 17.8359ZM269.047 15.7734L268.582 16.659L268.588 16.6621L269.047 15.7734ZM259.648 21.5625L258.775 22.0504L258.782 22.0615L259.648 21.5625ZM261.008 23.0156L260.411 23.8181L260.418 23.8231L260.425 23.8279L261.008 23.0156ZM266.562 25.3828L266.848 24.4243L266.839 24.4217L266.562 25.3828ZM271.508 27.2578L271.069 28.1562L271.077 28.1601L271.508 27.2578ZM277.133 32.4844L276.214 32.8783L276.216 32.8831L277.133 32.4844ZM276.969 40.0547L277.861 40.5068L277.863 40.5019L276.969 40.0547ZM274.484 42.9844L275.084 43.7844L275.086 43.783L274.484 42.9844ZM270.641 44.8359L270.914 45.7979L270.921 45.7959L270.641 44.8359ZM260.82 44.8125L260.553 45.7762L260.556 45.7768L260.82 44.8125ZM256.508 42.8203L255.935 43.64L255.942 43.6446L256.508 42.8203ZM253.414 39.4453L252.543 39.9361L252.545 39.9404L253.414 39.4453ZM252.266 34.6875V33.6875H251.266V34.6875H252.266ZM258.148 34.6875H259.148V33.6875H258.148V34.6875ZM258.711 37.5234L257.809 37.9562L257.813 37.9634L257.817 37.9707L258.711 37.5234ZM260.328 39.4453L259.74 40.254L259.746 40.2585L259.752 40.2628L260.328 39.4453ZM262.719 40.5234L262.468 41.4916L262.472 41.4926L262.719 40.5234ZM269.117 40.2891L268.733 39.366L268.727 39.3683L269.117 40.2891ZM272.93 36.2109C272.93 35.4047 272.804 34.65 272.53 33.9645L270.673 34.7073C270.836 35.1156 270.93 35.6109 270.93 36.2109H272.93ZM272.539 33.9878C272.266 33.2522 271.784 32.6172 271.149 32.0751L269.851 33.5968C270.278 33.961 270.531 34.3259 270.664 34.6841L272.539 33.9878ZM271.149 32.0751C270.515 31.5341 269.667 31.0499 268.649 30.6066L267.851 32.4403C268.77 32.8408 269.423 33.2315 269.851 33.5968L271.149 32.0751ZM268.667 30.6146C267.659 30.1519 266.395 29.6917 264.886 29.2311L264.302 31.1439C265.762 31.5896 266.935 32.02 267.833 32.4323L268.667 30.6146ZM264.888 29.2317C263.296 28.7419 261.833 28.2006 260.499 27.6092L259.689 29.4377C261.104 30.065 262.642 30.6331 264.3 31.1433L264.888 29.2317ZM260.511 27.6149C259.215 27.0189 258.099 26.3411 257.156 25.5863L255.907 27.1481C256.994 28.0183 258.254 28.778 259.676 29.432L260.511 27.6149ZM257.163 25.5922C256.242 24.8409 255.542 23.9974 255.048 23.0634L253.28 23.9991C253.911 25.1901 254.789 26.2372 255.899 27.1422L257.163 25.5922ZM255.051 23.0687C254.574 22.1542 254.32 21.0752 254.32 19.8047H252.32C252.32 21.3467 252.63 22.752 253.277 23.9938L255.051 23.0687ZM254.32 19.8047C254.32 18.5571 254.578 17.4484 255.079 16.4599L253.296 15.5557C252.64 16.8485 252.32 18.271 252.32 19.8047H254.32ZM255.075 16.4695C255.597 15.4657 256.335 14.5922 257.304 13.8477L256.086 12.2616C254.899 13.1734 253.965 14.2687 253.3 15.5461L255.075 16.4695ZM257.306 13.8465C258.293 13.0849 259.471 12.488 260.854 12.0658L260.271 10.1529C258.685 10.637 257.285 11.337 256.085 12.2629L257.306 13.8465ZM260.864 12.063C262.237 11.6293 263.774 11.4062 265.484 11.4062V9.40625C263.601 9.40625 261.857 9.65195 260.261 10.1558L260.864 12.063ZM265.484 11.4062C267.893 11.4062 269.909 11.8521 271.567 12.7023L272.48 10.9227C270.481 9.89788 268.138 9.40625 265.484 9.40625V11.4062ZM271.57 12.7039C273.27 13.5684 274.54 14.7084 275.417 16.1152L277.114 15.0567C276.023 13.3073 274.464 11.9316 272.477 10.9211L271.57 12.7039ZM275.421 16.1212C276.317 17.5358 276.766 19.0917 276.766 20.8125H278.766C278.766 18.7208 278.214 16.7923 277.11 15.0507L275.421 16.1212ZM277.766 19.8125H271.93V21.8125H277.766V19.8125ZM272.93 20.8125C272.93 19.54 272.654 18.3742 272.074 17.3449L270.332 18.327C270.721 19.0165 270.93 19.835 270.93 20.8125H272.93ZM272.085 17.3637C271.511 16.2928 270.636 15.4681 269.506 14.8848L268.588 16.6621C269.396 17.0788 269.958 17.629 270.322 18.3082L272.085 17.3637ZM269.511 14.8879C268.372 14.2904 266.988 14.0234 265.414 14.0234V16.0234C266.777 16.0234 267.815 16.2565 268.582 16.659L269.511 14.8879ZM265.414 14.0234C263.93 14.0234 262.621 14.2474 261.529 14.7469L262.361 16.5656C263.114 16.2213 264.117 16.0234 265.414 16.0234V14.0234ZM261.529 14.7469C260.465 15.2339 259.612 15.9212 259.037 16.8339L260.729 17.9005C261.06 17.3757 261.582 16.9224 262.361 16.5656L261.529 14.7469ZM259.037 16.8339C258.476 17.7231 258.203 18.7228 258.203 19.8047H260.203C260.203 19.0741 260.383 18.4488 260.729 17.9005L259.037 16.8339ZM258.203 19.8047C258.203 20.6068 258.391 21.362 258.775 22.0503L260.521 21.0747C260.312 20.7005 260.203 20.2838 260.203 19.8047H258.203ZM258.782 22.0615C259.163 22.7236 259.721 23.305 260.411 23.8181L261.605 22.2132C261.076 21.82 260.728 21.4327 260.515 21.0635L258.782 22.0615ZM260.425 23.8279C261.11 24.3202 261.946 24.768 262.915 25.1786L263.695 23.3371C262.82 22.9664 262.124 22.586 261.591 22.2033L260.425 23.8279ZM262.915 25.1786C263.883 25.5887 265.008 25.9765 266.286 26.3439L266.839 24.4217C265.617 24.0704 264.571 23.7081 263.695 23.3371L262.915 25.1786ZM266.277 26.3413C268.128 26.8919 269.723 27.4982 271.069 28.1562L271.947 26.3594C270.48 25.6424 268.778 24.9987 266.848 24.4243L266.277 26.3413ZM271.077 28.1601C272.413 28.7986 273.497 29.5124 274.348 30.2918L275.699 28.8175C274.674 27.8782 273.415 27.0608 271.939 26.3555L271.077 28.1601ZM274.348 30.2918C275.188 31.0621 275.805 31.9237 276.214 32.8783L278.052 32.0905C277.524 30.8575 276.734 29.7661 275.699 28.8175L274.348 30.2918ZM276.216 32.8831C276.621 33.8159 276.836 34.9032 276.836 36.1641H278.836C278.836 34.6749 278.582 33.3091 278.05 32.0856L276.216 32.8831ZM276.836 36.1641C276.836 37.4639 276.576 38.605 276.074 39.6075L277.863 40.5019C278.518 39.1919 278.836 37.7392 278.836 36.1641H276.836ZM276.077 39.6026C275.571 40.5995 274.846 41.4599 273.883 42.1858L275.086 43.783C276.279 42.8839 277.21 41.7911 277.861 40.5068L276.077 39.6026ZM273.884 42.1844C272.933 42.8976 271.765 43.4663 270.361 43.8759L270.921 45.7959C272.516 45.3306 273.91 44.6649 275.084 43.7844L273.884 42.1844ZM270.367 43.874C268.986 44.2665 267.424 44.4688 265.672 44.4688V46.4688C267.576 46.4688 269.326 46.2491 270.914 45.7978L270.367 43.874ZM265.672 44.4688C264.121 44.4688 262.593 44.2622 261.085 43.8482L260.556 45.7768C262.235 46.2378 263.941 46.4688 265.672 46.4688V44.4688ZM261.087 43.8488C259.612 43.4397 258.276 42.8214 257.074 41.996L255.942 43.6446C257.334 44.6005 258.873 45.3103 260.553 45.7762L261.087 43.8488ZM257.081 42.0006C255.902 41.1773 254.973 40.1622 254.283 38.9503L252.545 39.9404C253.386 41.416 254.519 42.6508 255.935 43.64L257.081 42.0006ZM254.285 38.9546C253.617 37.7677 253.266 36.3561 253.266 34.6875H251.266C251.266 36.6439 251.68 38.4042 252.543 39.936L254.285 38.9546ZM252.266 35.6875H258.148V33.6875H252.266V35.6875ZM257.148 34.6875C257.148 35.9061 257.354 37.0075 257.809 37.9562L259.612 37.0907C259.318 36.4768 259.148 35.6876 259.148 34.6875H257.148ZM257.817 37.9707C258.277 38.8911 258.919 39.6572 259.74 40.254L260.916 38.6366C260.362 38.2335 259.926 37.7183 259.605 37.0762L257.817 37.9707ZM259.752 40.2628C260.549 40.824 261.459 41.2304 262.468 41.4916L262.969 39.5553C262.166 39.3477 261.483 39.0354 260.904 38.6278L259.752 40.2628ZM262.472 41.4926C263.482 41.7494 264.55 41.875 265.672 41.875V39.875C264.7 39.875 263.799 39.7662 262.965 39.5543L262.472 41.4926ZM265.672 41.875C267.134 41.875 268.425 41.6684 269.507 41.2098L268.727 39.3683C267.965 39.691 266.96 39.875 265.672 39.875V41.875ZM269.502 41.2121C270.584 40.7611 271.46 40.1012 272.059 39.2031L270.395 38.0937C270.056 38.6019 269.525 39.0357 268.733 39.366L269.502 41.2121ZM272.059 39.2031C272.647 38.3208 272.93 37.3115 272.93 36.2109H270.93C270.93 36.9541 270.744 37.5698 270.395 38.0937L272.059 39.2031Z" fill="black"/>
</g>
<g filter="url(#filter1_d_54_5555)">
<path d="M23.9375 9.875V44H18.1016V9.875H23.9375ZM34.6484 9.875V14.5625H7.48438V9.875H34.6484ZM39.1484 9.875H51.2188C53.8125 9.875 56.0234 10.2656 57.8516 11.0469C59.6797 11.8281 61.0781 12.9844 62.0469 14.5156C63.0312 16.0312 63.5234 17.9062 63.5234 20.1406C63.5234 21.8438 63.2109 23.3438 62.5859 24.6406C61.9609 25.9375 61.0781 27.0312 59.9375 27.9219C58.7969 28.7969 57.4375 29.4766 55.8594 29.9609L54.0781 30.8281H43.2266L43.1797 26.1641H51.3125C52.7188 26.1641 53.8906 25.9141 54.8281 25.4141C55.7656 24.9141 56.4688 24.2344 56.9375 23.375C57.4219 22.5 57.6641 21.5156 57.6641 20.4219C57.6641 19.2344 57.4297 18.2031 56.9609 17.3281C56.5078 16.4375 55.8047 15.7578 54.8516 15.2891C53.8984 14.8047 52.6875 14.5625 51.2188 14.5625H45.0312V44H39.1484V9.875ZM58.625 44L50.6094 28.6719L56.7734 28.6484L64.9062 43.6953V44H58.625ZM82.6719 14.4219L72.4766 44H66.3125L79.1562 9.875H83.0938L82.6719 14.4219ZM91.2031 44L80.9844 14.4219L80.5391 9.875H84.5L97.3906 44H91.2031ZM90.7109 31.3438V36.0078H72.1484V31.3438H90.7109ZM110.938 37.7656L119.914 9.875H126.406L114.172 44H109.789L110.938 37.7656ZM102.641 9.875L111.547 37.7656L112.766 44H108.359L96.1719 9.875H102.641ZM152.562 39.3359V44H134.445V39.3359H152.562ZM136.109 9.875V44H130.227V9.875H136.109ZM150.195 24.125V28.7188H134.445V24.125H150.195ZM152.445 9.875V14.5625H134.445V9.875H152.445ZM178.742 39.3359V44H161.609V39.3359H178.742ZM163.25 9.875V44H157.367V9.875H163.25ZM208.039 28.5781H199.344L199.297 24.2891H206.891C208.172 24.2891 209.258 24.1016 210.148 23.7266C211.055 23.3359 211.742 22.7812 212.211 22.0625C212.68 21.3281 212.914 20.4453 212.914 19.4141C212.914 18.2734 212.695 17.3438 212.258 16.625C211.82 15.9062 211.148 15.3828 210.242 15.0547C209.352 14.7266 208.211 14.5625 206.82 14.5625H201.125V44H195.242V9.875H206.82C208.695 9.875 210.367 10.0547 211.836 10.4141C213.32 10.7734 214.578 11.3359 215.609 12.1016C216.656 12.8516 217.445 13.8047 217.977 14.9609C218.523 16.1172 218.797 17.4922 218.797 19.0859C218.797 20.4922 218.461 21.7812 217.789 22.9531C217.117 24.1094 216.125 25.0547 214.812 25.7891C213.5 26.5234 211.867 26.9609 209.914 27.1016L208.039 28.5781ZM207.781 44H197.492L200.141 39.3359H207.781C209.109 39.3359 210.219 39.1172 211.109 38.6797C212 38.2266 212.664 37.6094 213.102 36.8281C213.555 36.0312 213.781 35.1016 213.781 34.0391C213.781 32.9297 213.586 31.9688 213.195 31.1562C212.805 30.3281 212.188 29.6953 211.344 29.2578C210.5 28.8047 209.398 28.5781 208.039 28.5781H201.43L201.477 24.2891H210.078L211.414 25.9062C213.289 25.9688 214.828 26.3828 216.031 27.1484C217.25 27.9141 218.156 28.9062 218.75 30.125C219.344 31.3438 219.641 32.6562 219.641 34.0625C219.641 36.2344 219.164 38.0547 218.211 39.5234C217.273 40.9922 215.922 42.1094 214.156 42.875C212.391 43.625 210.266 44 207.781 44ZM244.719 9.875H250.578V32.6797C250.578 35.2734 250.016 37.4453 248.891 39.1953C247.766 40.9453 246.234 42.2656 244.297 43.1562C242.375 44.0312 240.227 44.4688 237.852 44.4688C235.398 44.4688 233.211 44.0312 231.289 43.1562C229.367 42.2656 227.852 40.9453 226.742 39.1953C225.648 37.4453 225.102 35.2734 225.102 32.6797V9.875H230.961V32.6797C230.961 34.3203 231.242 35.6719 231.805 36.7344C232.367 37.7812 233.164 38.5547 234.195 39.0547C235.227 39.5547 236.445 39.8047 237.852 39.8047C239.258 39.8047 240.469 39.5547 241.484 39.0547C242.516 38.5547 243.312 37.7812 243.875 36.7344C244.438 35.6719 244.719 34.3203 244.719 32.6797V9.875ZM274.93 35.2109C274.93 34.5078 274.82 33.8828 274.602 33.3359C274.398 32.7891 274.031 32.2891 273.5 31.8359C272.969 31.3828 272.219 30.9453 271.25 30.5234C270.297 30.0859 269.078 29.6406 267.594 29.1875C265.969 28.6875 264.469 28.1328 263.094 27.5234C261.734 26.8984 260.547 26.1797 259.531 25.3672C258.516 24.5391 257.727 23.5938 257.164 22.5312C256.602 21.4531 256.32 20.2109 256.32 18.8047C256.32 17.4141 256.609 16.1484 257.188 15.0078C257.781 13.8672 258.617 12.8828 259.695 12.0547C260.789 11.2109 262.078 10.5625 263.562 10.1094C265.047 9.64062 266.688 9.40625 268.484 9.40625C271.016 9.40625 273.195 9.875 275.023 10.8125C276.867 11.75 278.281 13.0078 279.266 14.5859C280.266 16.1641 280.766 17.9062 280.766 19.8125H274.93C274.93 18.6875 274.688 17.6953 274.203 16.8359C273.734 15.9609 273.016 15.2734 272.047 14.7734C271.094 14.2734 269.883 14.0234 268.414 14.0234C267.023 14.0234 265.867 14.2344 264.945 14.6562C264.023 15.0781 263.336 15.6484 262.883 16.3672C262.43 17.0859 262.203 17.8984 262.203 18.8047C262.203 19.4453 262.352 20.0312 262.648 20.5625C262.945 21.0781 263.398 21.5625 264.008 22.0156C264.617 22.4531 265.383 22.8672 266.305 23.2578C267.227 23.6484 268.312 24.0234 269.562 24.3828C271.453 24.9453 273.102 25.5703 274.508 26.2578C275.914 26.9297 277.086 27.6953 278.023 28.5547C278.961 29.4141 279.664 30.3906 280.133 31.4844C280.602 32.5625 280.836 33.7891 280.836 35.1641C280.836 36.6016 280.547 37.8984 279.969 39.0547C279.391 40.1953 278.562 41.1719 277.484 41.9844C276.422 42.7812 275.141 43.3984 273.641 43.8359C272.156 44.2578 270.5 44.4688 268.672 44.4688C267.031 44.4688 265.414 44.25 263.82 43.8125C262.242 43.375 260.805 42.7109 259.508 41.8203C258.211 40.9141 257.18 39.7891 256.414 38.4453C255.648 37.0859 255.266 35.5 255.266 33.6875H261.148C261.148 34.7969 261.336 35.7422 261.711 36.5234C262.102 37.3047 262.641 37.9453 263.328 38.4453C264.016 38.9297 264.812 39.2891 265.719 39.5234C266.641 39.7578 267.625 39.875 268.672 39.875C270.047 39.875 271.195 39.6797 272.117 39.2891C273.055 38.8984 273.758 38.3516 274.227 37.6484C274.695 36.9453 274.93 36.1328 274.93 35.2109Z" fill="#495371"/>
<path d="M23.9375 9.875H24.9375V8.875H23.9375V9.875ZM23.9375 44V45H24.9375V44H23.9375ZM18.1016 44H17.1016V45H18.1016V44ZM18.1016 9.875V8.875H17.1016V9.875H18.1016ZM34.6484 9.875H35.6484V8.875H34.6484V9.875ZM34.6484 14.5625V15.5625H35.6484V14.5625H34.6484ZM7.48438 14.5625H6.48438V15.5625H7.48438V14.5625ZM7.48438 9.875V8.875H6.48438V9.875H7.48438ZM22.9375 9.875V44H24.9375V9.875H22.9375ZM23.9375 43H18.1016V45H23.9375V43ZM19.1016 44V9.875H17.1016V44H19.1016ZM18.1016 10.875H23.9375V8.875H18.1016V10.875ZM33.6484 9.875V14.5625H35.6484V9.875H33.6484ZM34.6484 13.5625H7.48438V15.5625H34.6484V13.5625ZM8.48438 14.5625V9.875H6.48438V14.5625H8.48438ZM7.48438 10.875H34.6484V8.875H7.48438V10.875ZM39.1484 9.875V8.875H38.1484V9.875H39.1484ZM62.0469 14.5156L61.2017 15.0503L61.2082 15.0603L62.0469 14.5156ZM59.9375 27.9219L60.5462 28.7153L60.5529 28.7101L59.9375 27.9219ZM55.8594 29.9609L55.566 29.005L55.4916 29.0278L55.4217 29.0618L55.8594 29.9609ZM54.0781 30.8281V31.8281H54.3086L54.5158 31.7272L54.0781 30.8281ZM43.2266 30.8281L42.2266 30.8382L42.2366 31.8281H43.2266V30.8281ZM43.1797 26.1641V25.1641H42.1696L42.1797 26.1741L43.1797 26.1641ZM56.9375 23.375L56.0626 22.8907L56.0596 22.8961L56.9375 23.375ZM56.9609 17.3281L56.0697 17.7816L56.0745 17.791L56.0795 17.8003L56.9609 17.3281ZM54.8516 15.2891L54.3985 16.1806L54.4102 16.1864L54.8516 15.2891ZM45.0312 14.5625V13.5625H44.0312V14.5625H45.0312ZM45.0312 44V45H46.0312V44H45.0312ZM39.1484 44H38.1484V45H39.1484V44ZM58.625 44L57.7389 44.4634L58.0195 45H58.625V44ZM50.6094 28.6719L50.6056 27.6719L48.9612 27.6781L49.7232 29.1353L50.6094 28.6719ZM56.7734 28.6484L57.6532 28.1729L57.3684 27.6462L56.7696 27.6484L56.7734 28.6484ZM64.9062 43.6953H65.9062V43.4424L65.786 43.2198L64.9062 43.6953ZM64.9062 44V45H65.9062V44H64.9062ZM39.1484 10.875H51.2188V8.875H39.1484V10.875ZM51.2188 10.875C53.7167 10.875 55.7863 11.2518 57.4586 11.9664L58.2445 10.1273C56.2606 9.27948 53.9083 8.875 51.2188 8.875V10.875ZM57.4586 11.9664C59.1194 12.6762 60.3518 13.7067 61.2018 15.0503L62.892 13.981C61.8044 12.262 60.2399 10.9801 58.2445 10.1273L57.4586 11.9664ZM61.2082 15.0603C62.0648 16.3792 62.5234 18.0538 62.5234 20.1406H64.5234C64.5234 17.7587 63.9977 15.6833 62.8855 13.9709L61.2082 15.0603ZM62.5234 20.1406C62.5234 21.7207 62.2339 23.0676 61.6851 24.2065L63.4868 25.0748C64.1879 23.6199 64.5234 21.9668 64.5234 20.1406H62.5234ZM61.6851 24.2065C61.1271 25.3642 60.3423 26.3371 59.3221 27.1337L60.5529 28.7101C61.814 27.7254 62.7947 26.5108 63.4868 25.0748L61.6851 24.2065ZM59.3288 27.1284C58.2957 27.921 57.0468 28.5504 55.566 29.005L56.1528 30.9169C57.8282 30.4027 59.2981 29.6727 60.5462 28.7153L59.3288 27.1284ZM55.4217 29.0618L53.6404 29.929L54.5158 31.7272L56.2971 30.86L55.4217 29.0618ZM54.0781 29.8281H43.2266V31.8281H54.0781V29.8281ZM44.2265 30.8181L44.1796 26.154L42.1797 26.1741L42.2266 30.8382L44.2265 30.8181ZM43.1797 27.1641H51.3125V25.1641H43.1797V27.1641ZM51.3125 27.1641C52.8318 27.1641 54.1771 26.8946 55.2987 26.2964L54.3575 24.5317C53.6041 24.9335 52.6057 25.1641 51.3125 25.1641V27.1641ZM55.2987 26.2964C56.3931 25.7127 57.2452 24.8993 57.8154 23.8539L56.0596 22.8961C55.6923 23.5695 55.1381 24.1154 54.3575 24.5317L55.2987 26.2964ZM57.8124 23.8593C58.3864 22.8225 58.6641 21.6688 58.6641 20.4219H56.6641C56.6641 21.3625 56.4574 22.1775 56.0626 22.8907L57.8124 23.8593ZM58.6641 20.4219C58.6641 19.1018 58.4029 17.9021 57.8424 16.8559L56.0795 17.8003C56.4565 18.5041 56.6641 19.3669 56.6641 20.4219H58.6641ZM57.8522 16.8747C57.2947 15.7788 56.427 14.9495 55.2929 14.3917L54.4102 16.1864C55.1823 16.5661 55.721 17.0962 56.0697 17.7816L57.8522 16.8747ZM55.3046 14.3976C54.1687 13.8203 52.7892 13.5625 51.2188 13.5625V15.5625C52.5858 15.5625 53.6282 15.7891 54.3985 16.1805L55.3046 14.3976ZM51.2188 13.5625H45.0312V15.5625H51.2188V13.5625ZM44.0312 14.5625V44H46.0312V14.5625H44.0312ZM45.0312 43H39.1484V45H45.0312V43ZM40.1484 44V9.875H38.1484V44H40.1484ZM59.5111 43.5366L51.4955 28.2085L49.7232 29.1353L57.7389 44.4634L59.5111 43.5366ZM50.6132 29.6719L56.7772 29.6484L56.7696 27.6484L50.6056 27.6719L50.6132 29.6719ZM55.8937 29.1239L64.0265 44.1708L65.786 43.2198L57.6532 28.1729L55.8937 29.1239ZM63.9062 43.6953V44H65.9062V43.6953H63.9062ZM64.9062 43H58.625V45H64.9062V43ZM82.6719 14.4219L83.6173 14.7478L83.6565 14.634L83.6676 14.5143L82.6719 14.4219ZM72.4766 44V45H73.1896L73.422 44.3259L72.4766 44ZM66.3125 44L65.3766 43.6477L64.8676 45H66.3125V44ZM79.1562 9.875V8.875H78.4641L78.2203 9.52275L79.1562 9.875ZM83.0938 9.875L84.0895 9.96739L84.1908 8.875H83.0938V9.875ZM91.2031 44L90.2579 44.3265L90.4906 45H91.2031V44ZM80.9844 14.4219L79.9891 14.5193L80.0006 14.6368L80.0392 14.7484L80.9844 14.4219ZM80.5391 9.875V8.875H79.4363L79.5438 9.97247L80.5391 9.875ZM84.5 9.875L85.4355 9.52162L85.1912 8.875H84.5V9.875ZM97.3906 44V45H98.8373L98.3261 43.6466L97.3906 44ZM90.7109 31.3438H91.7109V30.3438H90.7109V31.3438ZM90.7109 36.0078V37.0078H91.7109V36.0078H90.7109ZM72.1484 36.0078H71.1484V37.0078H72.1484V36.0078ZM72.1484 31.3438V30.3438H71.1484V31.3438H72.1484ZM81.7265 14.096L71.5311 43.6741L73.422 44.3259L83.6173 14.7478L81.7265 14.096ZM72.4766 43H66.3125V45H72.4766V43ZM67.2484 44.3523L80.0922 10.2273L78.2203 9.52275L65.3766 43.6477L67.2484 44.3523ZM79.1562 10.875H83.0938V8.875H79.1562V10.875ZM82.098 9.78261L81.6762 14.3295L83.6676 14.5143L84.0895 9.96739L82.098 9.78261ZM92.1483 43.6735L81.9296 14.0953L80.0392 14.7484L90.2579 44.3265L92.1483 43.6735ZM81.9796 14.3244L81.5343 9.77753L79.5438 9.97247L79.9891 14.5193L81.9796 14.3244ZM80.5391 10.875H84.5V8.875H80.5391V10.875ZM83.5645 10.2284L96.4551 44.3534L98.3261 43.6466L85.4355 9.52162L83.5645 10.2284ZM97.3906 43H91.2031V45H97.3906V43ZM89.7109 31.3438V36.0078H91.7109V31.3438H89.7109ZM90.7109 35.0078H72.1484V37.0078H90.7109V35.0078ZM73.1484 36.0078V31.3438H71.1484V36.0078H73.1484ZM72.1484 32.3438H90.7109V30.3438H72.1484V32.3438ZM110.938 37.7656L109.986 37.4593L109.966 37.5208L109.954 37.5845L110.938 37.7656ZM119.914 9.875V8.875H119.185L118.962 9.56863L119.914 9.875ZM126.406 9.875L127.348 10.2125L127.827 8.875H126.406V9.875ZM114.172 44V45H114.876L115.113 44.3375L114.172 44ZM109.789 44L108.806 43.8188L108.588 45H109.789V44ZM102.641 9.875L103.593 9.57081L103.371 8.875H102.641V9.875ZM111.547 37.7656L112.528 37.5738L112.517 37.5168L112.499 37.4614L111.547 37.7656ZM112.766 44V45H113.98L113.747 43.8081L112.766 44ZM108.359 44L107.418 44.3363L107.655 45H108.359V44ZM96.1719 9.875V8.875H94.7529L95.2301 10.2113L96.1719 9.875ZM111.889 38.072L120.866 10.1814L118.962 9.56863L109.986 37.4593L111.889 38.072ZM119.914 10.875H126.406V8.875H119.914V10.875ZM125.465 9.53752L113.231 43.6625L115.113 44.3375L127.348 10.2125L125.465 9.53752ZM114.172 43H109.789V45H114.172V43ZM110.773 44.1812L111.921 37.9468L109.954 37.5845L108.806 43.8188L110.773 44.1812ZM101.688 10.1792L110.594 38.0698L112.499 37.4614L103.593 9.57081L101.688 10.1792ZM110.565 37.9575L111.784 44.1919L113.747 43.8081L112.528 37.5738L110.565 37.9575ZM112.766 43H108.359V45H112.766V43ZM109.301 43.6637L97.1136 9.53866L95.2301 10.2113L107.418 44.3363L109.301 43.6637ZM96.1719 10.875H102.641V8.875H96.1719V10.875ZM152.562 39.3359H153.562V38.3359H152.562V39.3359ZM152.562 44V45H153.562V44H152.562ZM134.445 44H133.445V45H134.445V44ZM134.445 39.3359V38.3359H133.445V39.3359H134.445ZM136.109 9.875H137.109V8.875H136.109V9.875ZM136.109 44V45H137.109V44H136.109ZM130.227 44H129.227V45H130.227V44ZM130.227 9.875V8.875H129.227V9.875H130.227ZM150.195 24.125H151.195V23.125H150.195V24.125ZM150.195 28.7188V29.7188H151.195V28.7188H150.195ZM134.445 28.7188H133.445V29.7188H134.445V28.7188ZM134.445 24.125V23.125H133.445V24.125H134.445ZM152.445 9.875H153.445V8.875H152.445V9.875ZM152.445 14.5625V15.5625H153.445V14.5625H152.445ZM134.445 14.5625H133.445V15.5625H134.445V14.5625ZM134.445 9.875V8.875H133.445V9.875H134.445ZM151.562 39.3359V44H153.562V39.3359H151.562ZM152.562 43H134.445V45H152.562V43ZM135.445 44V39.3359H133.445V44H135.445ZM134.445 40.3359H152.562V38.3359H134.445V40.3359ZM135.109 9.875V44H137.109V9.875H135.109ZM136.109 43H130.227V45H136.109V43ZM131.227 44V9.875H129.227V44H131.227ZM130.227 10.875H136.109V8.875H130.227V10.875ZM149.195 24.125V28.7188H151.195V24.125H149.195ZM150.195 27.7188H134.445V29.7188H150.195V27.7188ZM135.445 28.7188V24.125H133.445V28.7188H135.445ZM134.445 25.125H150.195V23.125H134.445V25.125ZM151.445 9.875V14.5625H153.445V9.875H151.445ZM152.445 13.5625H134.445V15.5625H152.445V13.5625ZM135.445 14.5625V9.875H133.445V14.5625H135.445ZM134.445 10.875H152.445V8.875H134.445V10.875ZM178.742 39.3359H179.742V38.3359H178.742V39.3359ZM178.742 44V45H179.742V44H178.742ZM161.609 44H160.609V45H161.609V44ZM161.609 39.3359V38.3359H160.609V39.3359H161.609ZM163.25 9.875H164.25V8.875H163.25V9.875ZM163.25 44V45H164.25V44H163.25ZM157.367 44H156.367V45H157.367V44ZM157.367 9.875V8.875H156.367V9.875H157.367ZM177.742 39.3359V44H179.742V39.3359H177.742ZM178.742 43H161.609V45H178.742V43ZM162.609 44V39.3359H160.609V44H162.609ZM161.609 40.3359H178.742V38.3359H161.609V40.3359ZM162.25 9.875V44H164.25V9.875H162.25ZM163.25 43H157.367V45H163.25V43ZM158.367 44V9.875H156.367V44H158.367ZM157.367 10.875H163.25V8.875H157.367V10.875ZM208.039 28.5781V29.5781H208.386L208.658 29.3638L208.039 28.5781ZM199.344 28.5781L198.344 28.5891L198.355 29.5781H199.344V28.5781ZM199.297 24.2891V23.2891H198.286L198.297 24.3L199.297 24.2891ZM210.148 23.7266L210.537 24.6482L210.544 24.6449L210.148 23.7266ZM212.211 22.0625L213.049 22.6088L213.054 22.6005L212.211 22.0625ZM210.242 15.0547L209.896 15.993L209.902 15.995L210.242 15.0547ZM201.125 14.5625V13.5625H200.125V14.5625H201.125ZM201.125 44V45H202.125V44H201.125ZM195.242 44H194.242V45H195.242V44ZM195.242 9.875V8.875H194.242V9.875H195.242ZM211.836 10.4141L211.598 11.3854L211.601 11.386L211.836 10.4141ZM215.609 12.1016L215.013 12.9045L215.02 12.9095L215.027 12.9145L215.609 12.1016ZM217.977 14.9609L217.068 15.3785L217.073 15.3885L217.977 14.9609ZM217.789 22.9531L218.654 23.4556L218.657 23.4505L217.789 22.9531ZM209.914 27.1016L209.842 26.1041L209.536 26.1262L209.295 26.3159L209.914 27.1016ZM197.492 44L196.623 43.5062L195.774 45H197.492V44ZM200.141 39.3359V38.3359H199.558L199.271 38.8422L200.141 39.3359ZM211.109 38.6797L211.55 39.5773L211.563 39.571L211.109 38.6797ZM213.102 36.8281L212.232 36.3338L212.229 36.3395L213.102 36.8281ZM213.195 31.1562L212.291 31.5829L212.294 31.5895L213.195 31.1562ZM211.344 29.2578L210.871 30.1388L210.877 30.1422L210.883 30.1456L211.344 29.2578ZM201.43 28.5781L200.43 28.5672L200.419 29.5781H201.43V28.5781ZM201.477 24.2891V23.2891H200.487L200.477 24.2781L201.477 24.2891ZM210.078 24.2891L210.849 23.6522L210.549 23.2891H210.078V24.2891ZM211.414 25.9062L210.643 26.5431L210.93 26.8907L211.381 26.9057L211.414 25.9062ZM216.031 27.1484L215.494 27.9921L215.499 27.9952L216.031 27.1484ZM218.211 39.5234L217.372 38.9791L217.368 38.9854L218.211 39.5234ZM214.156 42.875L214.547 43.7954L214.554 43.7925L214.156 42.875ZM208.039 27.5781H199.344V29.5781H208.039V27.5781ZM200.344 28.5672L200.297 24.2781L198.297 24.3L198.344 28.5891L200.344 28.5672ZM199.297 25.2891H206.891V23.2891H199.297V25.2891ZM206.891 25.2891C208.264 25.2891 209.49 25.0888 210.536 24.6482L209.76 22.8049C209.026 23.1143 208.08 23.2891 206.891 23.2891V25.2891ZM210.544 24.6449C211.603 24.1884 212.457 23.516 213.049 22.6088L211.373 21.5162C211.027 22.0465 210.506 22.4835 209.753 22.8082L210.544 24.6449ZM213.054 22.6005C213.643 21.6779 213.914 20.6004 213.914 19.4141H211.914C211.914 20.2902 211.717 20.9783 211.368 21.5245L213.054 22.6005ZM213.914 19.4141C213.914 18.153 213.673 17.0267 213.112 16.1051L211.404 17.1449C211.718 17.6608 211.914 18.3939 211.914 19.4141H213.914ZM213.112 16.1051C212.539 15.164 211.67 14.5082 210.583 14.1144L209.902 15.995C210.627 16.2574 211.101 16.6485 211.404 17.1449L213.112 16.1051ZM210.588 14.1163C209.548 13.7332 208.279 13.5625 206.82 13.5625V15.5625C208.143 15.5625 209.155 15.72 209.896 15.993L210.588 14.1163ZM206.82 13.5625H201.125V15.5625H206.82V13.5625ZM200.125 14.5625V44H202.125V14.5625H200.125ZM201.125 43H195.242V45H201.125V43ZM196.242 44V9.875H194.242V44H196.242ZM195.242 10.875H206.82V8.875H195.242V10.875ZM206.82 10.875C208.634 10.875 210.223 11.049 211.598 11.3854L212.074 9.44272C210.511 9.06041 208.757 8.875 206.82 8.875V10.875ZM211.601 11.386C212.979 11.7197 214.108 12.2324 215.013 12.9045L216.205 11.2987C215.048 10.4394 213.662 9.82722 212.071 9.44214L211.601 11.386ZM215.027 12.9145C215.934 13.5645 216.61 14.3821 217.068 15.3784L218.885 14.5434C218.281 13.2273 217.378 12.1386 216.192 11.2886L215.027 12.9145ZM217.073 15.3885C217.543 16.3824 217.797 17.6046 217.797 19.0859H219.797C219.797 17.3798 219.504 15.852 218.881 14.5334L217.073 15.3885ZM217.797 19.0859C217.797 20.3251 217.503 21.4416 216.922 22.4557L218.657 23.4505C219.419 22.1209 219.797 20.6592 219.797 19.0859H217.797ZM216.924 22.4507C216.353 23.4334 215.5 24.2583 214.324 24.9164L215.301 26.6617C216.75 25.851 217.881 24.7853 218.654 23.4555L216.924 22.4507ZM214.324 24.9164C213.172 25.5609 211.691 25.971 209.842 26.1041L209.986 28.099C212.043 27.9509 213.828 27.4859 215.301 26.6617L214.324 24.9164ZM209.295 26.3159L207.42 27.7925L208.658 29.3638L210.533 27.8872L209.295 26.3159ZM207.781 43H197.492V45H207.781V43ZM198.362 44.4938L201.01 39.8297L199.271 38.8422L196.623 43.5062L198.362 44.4938ZM200.141 40.3359H207.781V38.3359H200.141V40.3359ZM207.781 40.3359C209.213 40.3359 210.484 40.101 211.55 39.5772L210.668 37.7821C209.953 38.1334 209.006 38.3359 207.781 38.3359V40.3359ZM211.563 39.571C212.609 39.0389 213.429 38.2904 213.974 37.3167L212.229 36.3395C211.899 36.9283 211.391 37.4143 210.656 37.7884L211.563 39.571ZM213.971 37.3224C214.522 36.3524 214.781 35.247 214.781 34.0391H212.781C212.781 34.9561 212.587 35.7101 212.232 36.3338L213.971 37.3224ZM214.781 34.0391C214.781 32.8135 214.565 31.6982 214.097 30.723L212.294 31.5895C212.606 32.2393 212.781 33.0458 212.781 34.0391H214.781ZM214.1 30.7296C213.612 29.6953 212.834 28.9043 211.804 28.3701L210.883 30.1456C211.541 30.4863 211.998 30.9609 212.291 31.5829L214.1 30.7296ZM211.817 28.3768C210.779 27.8197 209.498 27.5781 208.039 27.5781V29.5781C209.298 29.5781 210.221 29.7897 210.871 30.1388L211.817 28.3768ZM208.039 27.5781H201.43V29.5781H208.039V27.5781ZM202.43 28.5891L202.477 24.3L200.477 24.2781L200.43 28.5672L202.43 28.5891ZM201.477 25.2891H210.078V23.2891H201.477V25.2891ZM209.307 24.9259L210.643 26.5431L212.185 25.2694L210.849 23.6522L209.307 24.9259ZM211.381 26.9057C213.132 26.9641 214.483 27.3482 215.494 27.9921L216.568 26.3048C215.174 25.4174 213.446 24.9734 211.447 24.9068L211.381 26.9057ZM215.499 27.9952C216.57 28.6679 217.344 29.5226 217.851 30.563L219.649 29.687C218.968 28.2899 217.93 27.1602 216.563 26.3017L215.499 27.9952ZM217.851 30.563C218.376 31.6401 218.641 32.8022 218.641 34.0625H220.641C220.641 32.5103 220.312 31.0474 219.649 29.687L217.851 30.563ZM218.641 34.0625C218.641 36.0877 218.197 37.7075 217.372 38.9791L219.05 40.0678C220.131 38.4019 220.641 36.3811 220.641 34.0625H218.641ZM217.368 38.9854C216.549 40.2688 215.361 41.2626 213.758 41.9575L214.554 43.7925C216.483 42.9562 217.998 41.7156 219.054 40.0615L217.368 38.9854ZM213.765 41.9546C212.154 42.639 210.169 43 207.781 43V45C210.362 45 212.627 44.611 214.547 43.7954L213.765 41.9546ZM244.719 9.875V8.875H243.719V9.875H244.719ZM250.578 9.875H251.578V8.875H250.578V9.875ZM244.297 43.1562L244.711 44.0664L244.715 44.0649L244.297 43.1562ZM231.289 43.1562L230.869 44.0636L230.875 44.0664L231.289 43.1562ZM226.742 39.1953L225.894 39.7253L225.898 39.7307L226.742 39.1953ZM225.102 9.875V8.875H224.102V9.875H225.102ZM230.961 9.875H231.961V8.875H230.961V9.875ZM231.805 36.7344L230.921 37.2023L230.924 37.2077L231.805 36.7344ZM241.484 39.0547L241.048 38.1549L241.043 38.1575L241.484 39.0547ZM243.875 36.7344L244.756 37.2077L244.759 37.2023L243.875 36.7344ZM244.719 10.875H250.578V8.875H244.719V10.875ZM249.578 9.875V32.6797H251.578V9.875H249.578ZM249.578 32.6797C249.578 35.1289 249.048 37.1015 248.049 38.6546L249.732 39.7361C250.983 37.7892 251.578 35.4179 251.578 32.6797H249.578ZM248.049 38.6546C247.03 40.2399 245.648 41.4346 243.879 42.2476L244.715 44.0649C246.821 43.0966 248.501 41.6508 249.732 39.7361L248.049 38.6546ZM243.883 42.2461C242.106 43.0549 240.101 43.4688 237.852 43.4688V45.4688C240.352 45.4688 242.644 45.0076 244.711 44.0664L243.883 42.2461ZM237.852 43.4688C235.518 43.4688 233.476 43.0531 231.703 42.2461L230.875 44.0664C232.946 45.0094 235.278 45.4688 237.852 45.4688V43.4688ZM231.71 42.2489C229.958 41.4371 228.591 40.244 227.587 38.6599L225.898 39.7307C227.112 41.6466 228.777 43.0941 230.869 44.0636L231.71 42.2489ZM227.59 38.6653C226.618 37.1104 226.102 35.1338 226.102 32.6797H224.102C224.102 35.413 224.678 37.7802 225.894 39.7253L227.59 38.6653ZM226.102 32.6797V9.875H224.102V32.6797H226.102ZM225.102 10.875H230.961V8.875H225.102V10.875ZM229.961 9.875V32.6797H231.961V9.875H229.961ZM229.961 32.6797C229.961 34.4268 230.259 35.9527 230.921 37.2023L232.688 36.2665C232.225 35.391 231.961 34.2138 231.961 32.6797H229.961ZM230.924 37.2077C231.582 38.4327 232.531 39.3591 233.759 39.9545L234.632 38.1549C233.797 37.7503 233.152 37.1298 232.686 36.2611L230.924 37.2077ZM233.759 39.9545C234.954 40.5337 236.328 40.8047 237.852 40.8047V38.8047C236.563 38.8047 235.5 38.5757 234.632 38.1549L233.759 39.9545ZM237.852 40.8047C239.375 40.8047 240.744 40.5339 241.926 39.9519L241.043 38.1575C240.194 38.5755 239.141 38.8047 237.852 38.8047V40.8047ZM241.921 39.9545C243.149 39.3591 244.098 38.4327 244.756 37.2077L242.994 36.2611C242.527 37.1298 241.883 37.7503 241.048 38.1549L241.921 39.9545ZM244.759 37.2023C245.42 35.9527 245.719 34.4268 245.719 32.6797H243.719C243.719 34.2138 243.455 35.391 242.991 36.2665L244.759 37.2023ZM245.719 32.6797V9.875H243.719V32.6797H245.719ZM274.602 33.3359L273.664 33.6841L273.668 33.6958L273.673 33.7073L274.602 33.3359ZM271.25 30.5234L270.833 31.4323L270.842 31.4364L270.851 31.4403L271.25 30.5234ZM267.594 29.1875L267.3 30.1433L267.302 30.1439L267.594 29.1875ZM263.094 27.5234L262.676 28.4321L262.689 28.4377L263.094 27.5234ZM259.531 25.3672L258.899 26.1422L258.907 26.1481L259.531 25.3672ZM257.164 22.5312L256.277 22.9938L256.28 22.9991L257.164 22.5312ZM257.188 15.0078L256.3 14.5461L256.296 14.5557L257.188 15.0078ZM259.695 12.0547L260.304 12.8477L260.306 12.8465L259.695 12.0547ZM263.562 10.1094L263.854 11.0658L263.864 11.063L263.562 10.1094ZM275.023 10.8125L274.567 11.7023L274.57 11.7039L275.023 10.8125ZM279.266 14.5859L278.417 15.1152L278.421 15.1212L279.266 14.5859ZM280.766 19.8125V20.8125H281.766V19.8125H280.766ZM274.93 19.8125H273.93V20.8125H274.93V19.8125ZM274.203 16.8359L273.322 17.3082L273.327 17.3176L273.332 17.327L274.203 16.8359ZM272.047 14.7734L271.582 15.659L271.588 15.6621L272.047 14.7734ZM262.648 20.5625L261.775 21.0504L261.782 21.0615L262.648 20.5625ZM264.008 22.0156L263.411 22.8181L263.418 22.8231L263.425 22.8279L264.008 22.0156ZM269.562 24.3828L269.848 23.4243L269.839 23.4217L269.562 24.3828ZM274.508 26.2578L274.069 27.1562L274.077 27.1601L274.508 26.2578ZM280.133 31.4844L279.214 31.8783L279.216 31.8831L280.133 31.4844ZM279.969 39.0547L280.861 39.5068L280.863 39.5019L279.969 39.0547ZM277.484 41.9844L278.084 42.7844L278.086 42.783L277.484 41.9844ZM273.641 43.8359L273.914 44.7979L273.921 44.7959L273.641 43.8359ZM263.82 43.8125L263.553 44.7762L263.556 44.7768L263.82 43.8125ZM259.508 41.8203L258.935 42.64L258.942 42.6446L259.508 41.8203ZM256.414 38.4453L255.543 38.9361L255.545 38.9404L256.414 38.4453ZM255.266 33.6875V32.6875H254.266V33.6875H255.266ZM261.148 33.6875H262.148V32.6875H261.148V33.6875ZM261.711 36.5234L260.809 36.9562L260.813 36.9634L260.817 36.9707L261.711 36.5234ZM263.328 38.4453L262.74 39.254L262.746 39.2585L262.752 39.2628L263.328 38.4453ZM265.719 39.5234L265.468 40.4916L265.472 40.4926L265.719 39.5234ZM272.117 39.2891L271.733 38.366L271.727 38.3683L272.117 39.2891ZM275.93 35.2109C275.93 34.4047 275.804 33.65 275.53 32.9645L273.673 33.7073C273.836 34.1156 273.93 34.6109 273.93 35.2109H275.93ZM275.539 32.9878C275.266 32.2522 274.784 31.6172 274.149 31.0751L272.851 32.5968C273.278 32.961 273.531 33.3259 273.664 33.6841L275.539 32.9878ZM274.149 31.0751C273.515 30.5341 272.667 30.0499 271.649 29.6066L270.851 31.4403C271.77 31.8408 272.423 32.2315 272.851 32.5968L274.149 31.0751ZM271.667 29.6146C270.659 29.1519 269.395 28.6917 267.886 28.2311L267.302 30.1439C268.762 30.5896 269.935 31.02 270.833 31.4323L271.667 29.6146ZM267.888 28.2317C266.296 27.7419 264.833 27.2006 263.499 26.6092L262.689 28.4377C264.104 29.065 265.642 29.6331 267.3 30.1433L267.888 28.2317ZM263.511 26.6149C262.215 26.0189 261.099 25.3411 260.156 24.5863L258.907 26.1481C259.994 27.0183 261.254 27.778 262.676 28.432L263.511 26.6149ZM260.163 24.5922C259.242 23.8409 258.542 22.9974 258.048 22.0634L256.28 22.9991C256.911 24.1901 257.789 25.2372 258.899 26.1422L260.163 24.5922ZM258.051 22.0687C257.574 21.1542 257.32 20.0752 257.32 18.8047H255.32C255.32 20.3467 255.63 21.752 256.277 22.9938L258.051 22.0687ZM257.32 18.8047C257.32 17.5571 257.578 16.4484 258.079 15.4599L256.296 14.5557C255.64 15.8485 255.32 17.271 255.32 18.8047H257.32ZM258.075 15.4695C258.597 14.4657 259.335 13.5922 260.304 12.8477L259.086 11.2616C257.899 12.1734 256.965 13.2687 256.3 14.5461L258.075 15.4695ZM260.306 12.8465C261.293 12.0849 262.471 11.488 263.854 11.0658L263.271 9.15295C261.685 9.63696 260.285 10.337 259.085 11.2629L260.306 12.8465ZM263.864 11.063C265.237 10.6293 266.774 10.4062 268.484 10.4062V8.40625C266.601 8.40625 264.857 8.65195 263.261 9.15579L263.864 11.063ZM268.484 10.4062C270.893 10.4062 272.909 10.8521 274.567 11.7023L275.48 9.92268C273.481 8.89788 271.138 8.40625 268.484 8.40625V10.4062ZM274.57 11.7039C276.27 12.5684 277.54 13.7084 278.417 15.1152L280.114 14.0567C279.023 12.3073 277.464 10.9316 275.477 9.92111L274.57 11.7039ZM278.421 15.1212C279.317 16.5358 279.766 18.0917 279.766 19.8125H281.766C281.766 17.7208 281.214 15.7923 280.11 14.0507L278.421 15.1212ZM280.766 18.8125H274.93V20.8125H280.766V18.8125ZM275.93 19.8125C275.93 18.54 275.654 17.3742 275.074 16.3449L273.332 17.327C273.721 18.0165 273.93 18.835 273.93 19.8125H275.93ZM275.085 16.3637C274.511 15.2928 273.636 14.4681 272.506 13.8848L271.588 15.6621C272.396 16.0788 272.958 16.629 273.322 17.3082L275.085 16.3637ZM272.511 13.8879C271.372 13.2904 269.988 13.0234 268.414 13.0234V15.0234C269.777 15.0234 270.815 15.2565 271.582 15.659L272.511 13.8879ZM268.414 13.0234C266.93 13.0234 265.621 13.2474 264.529 13.7469L265.361 15.5656C266.114 15.2213 267.117 15.0234 268.414 15.0234V13.0234ZM264.529 13.7469C263.465 14.2339 262.612 14.9212 262.037 15.8339L263.729 16.9005C264.06 16.3757 264.582 15.9224 265.361 15.5656L264.529 13.7469ZM262.037 15.8339C261.476 16.7231 261.203 17.7228 261.203 18.8047H263.203C263.203 18.0741 263.383 17.4488 263.729 16.9005L262.037 15.8339ZM261.203 18.8047C261.203 19.6068 261.391 20.362 261.775 21.0503L263.521 20.0747C263.312 19.7005 263.203 19.2838 263.203 18.8047H261.203ZM261.782 21.0615C262.163 21.7236 262.721 22.305 263.411 22.8181L264.605 21.2132C264.076 20.82 263.728 20.4327 263.515 20.0635L261.782 21.0615ZM263.425 22.8279C264.11 23.3202 264.946 23.768 265.915 24.1786L266.695 22.3371C265.82 21.9664 265.124 21.586 264.591 21.2033L263.425 22.8279ZM265.915 24.1786C266.883 24.5887 268.008 24.9765 269.286 25.3439L269.839 23.4217C268.617 23.0704 267.571 22.7081 266.695 22.3371L265.915 24.1786ZM269.277 25.3413C271.128 25.8919 272.723 26.4982 274.069 27.1562L274.947 25.3594C273.48 24.6424 271.778 23.9987 269.848 23.4243L269.277 25.3413ZM274.077 27.1601C275.413 27.7986 276.497 28.5124 277.348 29.2918L278.699 27.8175C277.674 26.8782 276.415 26.0608 274.939 25.3555L274.077 27.1601ZM277.348 29.2918C278.188 30.0621 278.805 30.9237 279.214 31.8783L281.052 31.0905C280.524 29.8575 279.734 28.7661 278.699 27.8175L277.348 29.2918ZM279.216 31.8831C279.621 32.8159 279.836 33.9032 279.836 35.1641H281.836C281.836 33.6749 281.582 32.3091 281.05 31.0856L279.216 31.8831ZM279.836 35.1641C279.836 36.4639 279.576 37.605 279.074 38.6075L280.863 39.5019C281.518 38.1919 281.836 36.7392 281.836 35.1641H279.836ZM279.077 38.6026C278.571 39.5995 277.846 40.4599 276.883 41.1858L278.086 42.783C279.279 41.8839 280.21 40.7911 280.861 39.5068L279.077 38.6026ZM276.884 41.1844C275.933 41.8976 274.765 42.4663 273.361 42.8759L273.921 44.7959C275.516 44.3306 276.91 43.6649 278.084 42.7844L276.884 41.1844ZM273.367 42.874C271.986 43.2665 270.424 43.4688 268.672 43.4688V45.4688C270.576 45.4688 272.326 45.2491 273.914 44.7978L273.367 42.874ZM268.672 43.4688C267.121 43.4688 265.593 43.2622 264.085 42.8482L263.556 44.7768C265.235 45.2378 266.941 45.4688 268.672 45.4688V43.4688ZM264.087 42.8488C262.612 42.4397 261.276 41.8214 260.074 40.996L258.942 42.6446C260.334 43.6005 261.873 44.3103 263.553 44.7762L264.087 42.8488ZM260.081 41.0006C258.902 40.1773 257.973 39.1622 257.283 37.9503L255.545 38.9404C256.386 40.416 257.519 41.6508 258.935 42.64L260.081 41.0006ZM257.285 37.9546C256.617 36.7677 256.266 35.3561 256.266 33.6875H254.266C254.266 35.6439 254.68 37.4042 255.543 38.936L257.285 37.9546ZM255.266 34.6875H261.148V32.6875H255.266V34.6875ZM260.148 33.6875C260.148 34.9061 260.354 36.0075 260.809 36.9562L262.612 36.0907C262.318 35.4768 262.148 34.6876 262.148 33.6875H260.148ZM260.817 36.9707C261.277 37.8911 261.919 38.6572 262.74 39.254L263.916 37.6366C263.362 37.2335 262.926 36.7183 262.605 36.0762L260.817 36.9707ZM262.752 39.2628C263.549 39.824 264.459 40.2304 265.468 40.4916L265.969 38.5553C265.166 38.3477 264.483 38.0354 263.904 37.6278L262.752 39.2628ZM265.472 40.4926C266.482 40.7494 267.55 40.875 268.672 40.875V38.875C267.7 38.875 266.799 38.7662 265.965 38.5543L265.472 40.4926ZM268.672 40.875C270.134 40.875 271.425 40.6684 272.507 40.2098L271.727 38.3683C270.965 38.691 269.96 38.875 268.672 38.875V40.875ZM272.502 40.2121C273.584 39.7611 274.46 39.1012 275.059 38.2031L273.395 37.0937C273.056 37.6019 272.525 38.0357 271.733 38.366L272.502 40.2121ZM275.059 38.2031C275.647 37.3208 275.93 36.3115 275.93 35.2109H273.93C273.93 35.9541 273.744 36.5698 273.395 37.0937L275.059 38.2031Z" fill="black"/>
</g>
<defs>
<filter id="filter0_f_54_5555" x="0.484375" y="6.40625" width="281.352" height="43.0625" filterUnits="userSpaceOnUse" color-interpolation-filters="sRGB">
<feFlood flood-opacity="0" result="BackgroundImageFix"/>
<feBlend mode="normal" in="SourceGraphic" in2="BackgroundImageFix" result="shape"/>
<feGaussianBlur stdDeviation="2" result="effect1_foregroundBlur_54_5555"/>
</filter>
<filter id="filter1_d_54_5555" x="3.48438" y="9.40625" width="281.352" height="43.0625" filterUnits="userSpaceOnUse" color-interpolation-filters="sRGB">
<feFlood flood-opacity="0" result="BackgroundImageFix"/>
<feColorMatrix in="SourceAlpha" type="matrix" values="0 0 0 0 0 0 0 0 0 0 0 0 0 0 0 0 0 0 127 0" result="hardAlpha"/>
<feOffset dy="4"/>
<feGaussianBlur stdDeviation="2"/>
<feComposite in2="hardAlpha" operator="out"/>
<feColorMatrix type="matrix" values="0 0 0 0 0 0 0 0 0 0 0 0 0 0 0 0 0 0 0.25 0"/>
<feBlend mode="normal" in2="BackgroundImageFix" result="effect1_dropShadow_54_5555"/>
<feBlend mode="normal" in="SourceGraphic" in2="effect1_dropShadow_54_5555" result="shape"/>
</filter>
</defs>
</svg>
